<svg xmlns="http://www.w3.org/2000/svg" viewBox="0 0 120 120" aria-hidden="true"><defs><filter id="wc-wash" x="-20%" y="-20%" width="140%" height="140%" color-interpolation-filters="sRGB"><feTurbulence type="fractalNoise" baseFrequency="0.05" numOctaves="2" seed="4" result="n"></feTurbulence><feDisplacementMap in="SourceGraphic" in2="n" scale="5" xChannelSelector="R" yChannelSelector="G" result="d"></feDisplacementMap><feGaussianBlur in="d" stdDeviation="0.3" result="s"></feGaussianBlur><feColorMatrix in="n" type="matrix" values="0 0 0 0 0  0 0 0 0 0  0 0 0 0 0  0 0 1.8 0 -0.04" result="m"></feColorMatrix><feComposite in="s" in2="m" operator="in" result="p"></feComposite><feGaussianBlur in="d" stdDeviation="1.6" result="b"></feGaussianBlur><feComposite in="s" in2="b" operator="out" result="r"></feComposite><feColorMatrix in="r" type="matrix" values="0.62 0 0 0 0  0 0.56 0 0 0  0 0 0.54 0 0  0 0 0 0.9 0" result="e"></feColorMatrix><feMerge><feMergeNode in="p"></feMergeNode><feMergeNode in="e"></feMergeNode></feMerge></filter><filter id="wc-soft" x="-25%" y="-25%" width="150%" height="150%" color-interpolation-filters="sRGB"><feTurbulence type="fractalNoise" baseFrequency="0.06" numOctaves="2" seed="9" result="n"></feTurbulence><feDisplacementMap in="SourceGraphic" in2="n" scale="4" xChannelSelector="R" yChannelSelector="G" result="d"></feDisplacementMap><feGaussianBlur in="d" stdDeviation="0.9"></feGaussianBlur></filter><filter id="wc-edge" x="-20%" y="-20%" width="140%" height="140%" color-interpolation-filters="sRGB"><feTurbulence type="fractalNoise" baseFrequency="0.05" numOctaves="2" seed="4" result="n"></feTurbulence><feDisplacementMap in="SourceGraphic" in2="n" scale="5" xChannelSelector="R" yChannelSelector="G" result="d"></feDisplacementMap><feGaussianBlur in="d" stdDeviation="1.2" result="b"></feGaussianBlur><feComposite in="d" in2="b" operator="out" result="r"></feComposite><feColorMatrix in="r" type="matrix" values="0.6 0 0 0 0  0 0.55 0 0 0  0 0 0.55 0 0  0 0 0 1.4 0"></feColorMatrix></filter><filter id="wc-ink" filterUnits="userSpaceOnUse" x="-10" y="-10" width="140" height="140"><feTurbulence type="fractalNoise" baseFrequency="0.11" numOctaves="2" seed="2" result="n"></feTurbulence><feDisplacementMap in="SourceGraphic" in2="n" scale="1.8" xChannelSelector="R" yChannelSelector="G"></feDisplacementMap></filter><filter id="wc-grain" x="-10%" y="-10%" width="120%" height="120%" color-interpolation-filters="sRGB"><feTurbulence type="fractalNoise" baseFrequency="0.9" numOctaves="2" seed="11" result="g"></feTurbulence><feColorMatrix in="g" type="matrix" values="0 0 0 0 0.29  0 0 0 0 0.22  0 0 0 0 0.16  -2.6 0 0 0 0.95" result="k"></feColorMatrix><feComposite in="k" in2="SourceAlpha" operator="in" result="t"></feComposite><feMerge><feMergeNode in="SourceGraphic"></feMergeNode><feMergeNode in="t"></feMergeNode></feMerge></filter></defs><g filter="url(#wc-grain)"><defs><radialGradient id="viande-a" cx="0.45" cy="0.5" r="0.65"><stop offset="0" stop-color="#d77d6c"></stop><stop offset="0.5" stop-color="#bf4f43"></stop><stop offset="1" stop-color="#96342e"></stop></radialGradient></defs><path d="M20 58C20 44 36 34 57 36C73 37 84 30 96 38C106 45 104 60 98 70C92 82 78 91 60 91C39 92 20 78 20 58Z" fill="#8a2f2a" opacity="0.8" filter="url(#wc-wash)"></path><g transform="translate(0 -5)"><path d="M20 58C20 44 36 34 57 36C73 37 84 30 96 38C106 45 104 60 98 70C92 82 78 91 60 91C39 92 20 78 20 58Z" fill="url(#viande-a)" opacity="0.93" filter="url(#wc-wash)"></path><path d="M58 36C74 37 84 30 96 38C106 45 104 60 98 70C99 60 97 50 91 45C83 40 72 42 61 41C58 40 57 38 58 36Z" fill="#f3e2ca" opacity="0.95" filter="url(#wc-wash)"></path></g><path d="M78 48C90 54 96 64 90 74C84 80 74 84 64 85C80 78 88 64 78 48Z" fill="#7e2a27" opacity="0.35" filter="url(#wc-wash)"></path><path d="M32 58C40 50 52 46 62 46C52 50 42 56 36 64Z" fill="#fffaf0" opacity="0.45" filter="url(#wc-soft)"></path><g fill="none" stroke="#f6e6d4" stroke-opacity="0.75" stroke-width="1.3" stroke-linecap="round" stroke-linejoin="round" filter="url(#wc-ink)"><path d="M34 58C40 54 46 58 52 54M60 66C66 62 72 66 80 60M42 74C48 72 52 76 59 74M66 48C70 46 74 48 80 45"></path></g><g fill="none" stroke="#5f7d45" stroke-opacity="0.9" stroke-width="1.3" stroke-linecap="round" stroke-linejoin="round" filter="url(#wc-ink)"><path d="M46 76C58 66 74 54 94 40"></path></g><path d="M53.5 70C54.4 73 57.6 72.9 59.6 71.4C58.5 69.2 55.6 67.7 53.5 70ZM59 66C61.8 64.8 61.2 61.7 59.5 60.1C57.6 61.4 56.5 64.3 59 66ZM64.5 62C65.3 64.8 68.2 64.6 70 63.2C69 61.2 66.4 59.8 64.5 62ZM70 58C72.5 56.9 72 54.1 70.5 52.7C68.7 53.8 67.7 56.4 70 58ZM75.5 54C76.2 56.5 78.9 56.4 80.5 55.1C79.6 53.3 77.2 52 75.5 54ZM81 50C83.3 49 82.9 46.6 81.4 45.2C79.8 46.3 78.9 48.6 81 50ZM86.5 46C87.1 48.3 89.5 48.2 90.9 47C90.1 45.3 88.1 44.2 86.5 46ZM92 42C94.4 43.1 96.1 41 96.2 38.9C94.2 38.4 91.7 39.4 92 42Z" fill="#6f8a52" opacity="0.9" filter="url(#wc-wash)"></path><g fill="none" stroke="#4a3b2f" stroke-opacity="0.55" stroke-width="1.2" stroke-linecap="round" stroke-linejoin="round" filter="url(#wc-ink)"><path d="M20 58C20 72 30 86 48 91M22 64C24 76 34 88 52 92"></path></g></g></svg>